# xmcd
#
# Track frame offsets:
#	150
#	8867
#	20009
#	32106
#	43019
#	55258
#	71013
#	86951
#	97854
#	112758
#	123323
#	153883
#	172916
#	189572
#	208890
#	226650
#	241099
#	255181
#
# Disc length: 3644 seconds
#
# Revision: 1
# Processed by: cddbd v1.5.2PL0 Copyright (c) Steve Scherf et al.
# Submitted via: audiograbber 1.83.01
#
DISCID=dc0e3a12
DTITLE=Artists of StoMo - Blues and Boogie Vol. 7
DYEAR=2014
DGENRE=Blues
TTITLE0=Back on the Road - Get Back
TTITLE1=Nico Brina - A Mess Of The Blues
TTITLE2=Black Patti - Custard Pie Blues
TTITLE3=Steve Big Man Clayton - Gotta Lotta Lovin In Me
TTITLE4=Back on the Road - Lying Wife
TTITLE5=Dynamite Daze - Tango With The Devil
TTITLE6=Crazy Hambones - 30 Days
TTITLE7=Jan Preston - Bending The Truth
TTITLE8=Little Willie Littlefield - Blue And Lonesome
TTITLE9=Black Patti - Rock Island Line
TTITLE10=Mad Dawgs - Why You So Mean To Me
TTITLE11=Nico Brina - Magic Nights
TTITLE12=Morblus - What's It To Do
TTITLE13=Phrase Pig - Fleggahex
TTITLE14=N.O.O.T. - The Smell Of Paradise
TTITLE15=Roman Spilek - Know Nothing
TTITLE16=Thomas Scheytt - Flowerstreet Express
TTITLE17=Jan Hirte's Blues Ribbon - Any World That's Changing
EXTD=
EXTT0=
EXTT1=
EXTT2=
EXTT3=
EXTT4=
EXTT5=
EXTT6=
EXTT7=
EXTT8=
EXTT9=
EXTT10=
EXTT11=
EXTT12=
EXTT13=
EXTT14=
EXTT15=
EXTT16=
EXTT17=
PLAYORDER=
